# xmcd
#
# Track frame offsets:
#	150
#	10234
#	26205
#	45155
#	60142
#	72727
#	85445
#	100097
#	111260
#	128227
#	146085
#	161227
#
# Disc length: 2383 seconds
#
# Revision: 0
# Processed by: cddbd v1.4PL0 Copyright (c) Steve Scherf et al.
# Submitted via: EasyCDDAExtractor 4.6.9.1
#
DISCID=a4094d0c
DTITLE=Various Artist - Memories of Sanremo CD 01
DYEAR=1900
DGENRE=Canzone
TTITLE0=Casa Bianca
TTITLE1=Canzone Per Te
TTITLE2=Monica
TTITLE3=Non Ho Leta
TTITLE4=In Un Fiore
TTITLE5=Nessuno Mi Puo Gludicare
TTITLE6=Meglio Una Sera
TTITLE7=La Spada Net Cuore
TTITLE8=Che Sara
TTITLE9=4 Marzo 1943
TTITLE10=Grazie Dei Fior
TTITLE11=Io Sono It Vento
EXTD=
EXTT0=
EXTT1=
EXTT2=
EXTT3=
EXTT4=
EXTT5=
EXTT6=
EXTT7=
EXTT8=
EXTT9=
EXTT10=
EXTT11=
PLAYORDER=
